<svg aria-hidden="true" style="position: absolute; width: 0; height: 0; overflow: hidden;" version="1.1" xmlns="http://www.w3.org/2000/svg" xmlns:xlink="http://www.w3.org/1999/xlink">
<defs>
<symbol id="icon-down-right" viewBox="0 0 67 32">
<path fill="#fff" style="fill: var(--color1, #fff)" d="M36.37 4.895l0.060-0.068-0.021-0.018-0.027-0.004-0.012 0.090zM66.741 31.804l-0.045-0.737-0.737 0.045 0.045 0.737 0.737-0.045zM0.169 0.27l36.189 4.714 0.023-0.179-36.189-4.714-0.023 0.179zM36.31 4.963l29.98 26.563 0.12-0.135-29.98-26.563-0.12 0.135z"></path>
</symbol>
<symbol id="icon-right" viewBox="0 0 10 32">
<path fill="#fff" style="fill: var(--color1, #fff)" d="M0.389 12.257h-0.065v-0.022l0.013-0.017 0.052 0.039zM0.389 31.985l-0.374-0.374 0.374-0.374 0.374 0.374-0.374 0.374zM9.509 0.168l-9.069 12.127-0.104-0.078 9.069-12.127 0.104 0.078zM0.453 12.257v19.354h-0.13v-19.354h0.13z"></path>
</symbol>
<symbol id="icon-down-left" viewBox="0 0 54 32">
<path fill="#fff" style="fill: var(--color1, #fff)" d="M0.29 31.984l-0.046-1.135 1.135-0.046 0.046 1.135-1.135 0.046zM23.195 7.143l-0.102-0.094 0.029-0.032 0.042-0.010 0.030 0.136zM0.733 31.299l22.36-24.25 0.205 0.189-22.36 24.25-0.205-0.189zM23.165 7.007l30.395-6.825 0.061 0.272-30.395 6.825-0.061-0.271z"></path>
</symbol>
<symbol id="icon-down-mob" viewBox="0 0 10 32">
<path fill="#fff" style="fill: var(--color1, #fff)" d="M0.389 12.257h-0.065v-0.022l0.013-0.017 0.052 0.039zM0.389 31.985l-0.374-0.374 0.374-0.374 0.374 0.374-0.374 0.374zM9.509 0.168l-9.069 12.127-0.104-0.078 9.069-12.127 0.104 0.078zM0.453 12.257v19.354h-0.13v-19.354h0.13z"></path>
</symbol>
<symbol id="icon-linkedin" viewBox="0 0 32 32">
<path fill="#fff" style="fill: var(--color1, #fff)" d="M29.649 0.815h-25.605c-1.227 0-2.218 0.968-2.218 2.166v25.71c0 1.197 0.992 2.171 2.218 2.171h25.605c1.226 0 2.224-0.974 2.224-2.166v-25.716c0-1.197-0.998-2.166-2.224-2.166zM10.741 26.42h-4.46v-14.343h4.46v14.343zM8.511 10.123c-1.432 0-2.588-1.156-2.588-2.582s1.156-2.582 2.588-2.582c1.426 0 2.582 1.156 2.582 2.582 0 1.42-1.156 2.582-2.582 2.582zM27.431 26.42h-4.454v-6.972c0-1.661-0.029-3.803-2.318-3.803-2.318 0-2.67 1.813-2.67 3.686v7.089h-4.448v-14.343h4.272v1.96h0.059c0.593-1.127 2.048-2.318 4.214-2.318 4.513 0 5.346 2.97 5.346 6.831v7.87z"></path>
</symbol>
<symbol id="icon-corect" viewBox="0 0 173 32">
<path fill="#fff" style="fill: var(--color1, #fff)" opacity="0.5" d="M128 14.4h-128v1.6h128v-1.6z"></path>
<path fill="#fff" style="fill: var(--color1, #fff)" d="M140.8 16c0 8.837 7.163 16 16 16s16-7.163 16-16c0-8.837-7.163-16-16-16s-16 7.163-16 16z"></path>
<path fill="#4af6cd" style="fill: var(--color2, #4af6cd)" d="M166.212 14.117h-18.824v3.764h18.824v-3.764z"></path>
</symbol>
<symbol id="icon-menu" viewBox="0 0 47 32">
<path fill="#4af6cd" style="fill: var(--color2, #4af6cd)" d="M166.212 14.117h-18.824v3.764h18.824v-3.764z"></path>
</symbol>
<symbol id="icon-play" viewBox="0 0 28 32">
<path fill="#d80000" style="fill: var(--color3, #d80000)" d="M26.664 14.042l-8.103-4.829c-1.808-1.081-4.765-2.842-6.577-3.919l-8.4-4.829c-1.807-1.081-3.585-0.214-3.585 1.928v27.216c0 2.134 1.777 3.005 3.586 1.928l8.251-4.828c1.812-1.077 4.845-2.838 6.653-3.919l8.141-4.829c1.804-1.081 1.838-2.843 0.033-3.92z"></path>
</symbol>
</defs>
</svg>
